# This file uses centimeters as units for non-parametric coordinates.

mtllib alfombra.mtl
g default
v -3.900770 0.329926 -0.260806
v 1.622005 0.329926 -0.260806
v -3.900770 0.337787 -0.260806
v 1.622005 0.337787 -0.260806
v -3.900770 0.337787 -5.712792
v 1.622005 0.337787 -5.712792
v -3.900770 0.329926 -5.712792
v 1.622005 0.329926 -5.712792
vt 0.375000 0.000000
vt 0.625000 0.000000
vt 0.625000 0.250000
vt 0.375000 0.250000
vt -0.812316 -0.812316
vt 1.812315 -0.812316
vt 1.812315 1.812316
vt -0.812316 1.812316
vt 0.375000 0.500000
vt 0.625000 0.500000
vt 0.625000 0.750000
vt 0.375000 0.750000
vt 0.625000 1.000000
vt 0.375000 1.000000
vt 0.875000 0.000000
vt 0.875000 0.250000
vt 0.125000 0.000000
vt 0.125000 0.250000
vn 0.000000 0.000000 1.000000
vn 0.000000 0.000000 1.000000
vn 0.000000 0.000000 1.000000
vn 0.000000 0.000000 1.000000
vn 0.000000 1.000000 0.000000
vn 0.000000 1.000000 0.000000
vn 0.000000 1.000000 0.000000
vn 0.000000 1.000000 0.000000
vn 0.000000 0.000000 -1.000000
vn 0.000000 0.000000 -1.000000
vn 0.000000 0.000000 -1.000000
vn 0.000000 0.000000 -1.000000
vn 0.000000 -1.000000 0.000000
vn 0.000000 -1.000000 0.000000
vn 0.000000 -1.000000 0.000000
vn 0.000000 -1.000000 0.000000
vn 1.000000 0.000000 0.000000
vn 1.000000 0.000000 0.000000
vn 1.000000 0.000000 0.000000
vn 1.000000 0.000000 0.000000
vn -1.000000 0.000000 0.000000
vn -1.000000 0.000000 0.000000
vn -1.000000 0.000000 0.000000
vn -1.000000 0.000000 0.000000
s off
g alfombra:pCube1
usemtl alfombra:lambert2SG
f 1/1/1 2/2/2 4/3/3 3/4/4
f 3/5/5 4/6/6 6/7/7 5/8/8
f 5/9/9 6/10/10 8/11/11 7/12/12
f 7/12/13 8/11/14 2/13/15 1/14/16
f 2/2/17 8/15/18 6/16/19 4/3/20
f 7/17/21 1/1/22 3/4/23 5/18/24
