# This file uses centimeters as units for non-parametric coordinates.

mtllib piso.mtl
g default
v -12.822519 0.282700 12.239573
v 12.548025 0.282700 12.239573
v 3.114253 0.282700 9.890090
v -4.138247 0.282700 9.890090
v -4.138247 0.282700 5.595275
v -4.168069 0.282700 5.544936
v -4.168069 0.282700 -8.848966
v -12.822519 0.282700 -12.502515
v -4.138245 -0.282700 5.595267
v -4.138245 -0.282700 9.890086
v 3.114255 -0.282700 5.595267
v 3.114255 0.282700 5.595267
v 8.141754 -0.282700 -8.848966
v 8.141754 -0.282700 5.544932
v 8.141754 0.282700 5.544932
v 8.141754 0.282700 -8.848966
v -4.168067 -0.282700 5.544932
v 3.114255 -0.282700 9.890086
v -12.822517 -0.282700 12.239570
v 12.548027 -0.282700 12.239570
v 12.548027 -0.282700 -12.502515
v 12.548027 0.282700 -12.502515
v -12.822517 -0.282700 -12.502515
v -4.168067 -0.282700 -8.848966
vt 0.001943 0.998008
vt 0.001943 0.001992
vt 0.094180 0.372350
vt 0.094180 0.657074
vt 0.829853 0.658245
vt 0.973286 0.998008
vt 0.264766 0.658245
vt 0.262790 0.657074
vt 0.375000 0.000000
vt 0.125000 0.000000
vt 0.125000 0.250000
vt 0.375000 0.250000
vt 0.625000 0.500000
vt 0.375000 0.500000
vt 0.375000 0.750000
vt 0.625000 0.750000
vt 0.875000 0.200193
vt 0.875000 0.049807
vt 0.625000 0.049807
vt 0.625000 0.200193
vt 0.375000 0.049807
vt 0.375000 0.200193
vt 0.625000 0.000000
vt 0.625000 0.250000
vt 0.875000 0.000000
vt 0.875000 0.250000
vt 0.022241 0.998008
vt 0.000044 0.998008
vt 0.000044 0.001992
vt 0.022241 0.001992
vt 0.022806 0.998008
vt 0.000046 0.998008
vt 0.000046 0.001992
vt 0.022806 0.001992
vt 0.581581 0.932356
vt 0.625000 1.000000
vt 0.532040 0.976260
vt 0.532040 0.932864
vt 0.460574 0.932864
vt 0.460281 0.932356
vt 0.140790 0.564096
vt 0.000798 0.001992
vt 0.399694 0.264536
vt 0.396694 0.564096
vt 0.399694 0.998008
vt 0.396694 0.996231
vt 0.375000 1.000000
vt 0.460574 0.976260
vt 0.375000 0.750000
vt 0.460281 0.786916
vt 0.973286 0.001992
vt 0.973286 0.998008
vt 0.829852 0.658245
vt 0.829853 0.174977
vt 0.264767 0.174977
vt 0.001943 0.001992
vt 0.625000 0.750000
vt 0.581581 0.786916
vt 0.125000 0.049807
vt 0.125000 0.200193
vt 0.625000 0.700193
vt 0.625000 0.549807
vt 0.375000 0.549807
vt 0.375000 0.700193
vt 0.022242 0.998008
vt 0.000044 0.998008
vt 0.000044 0.001992
vt 0.022242 0.001992
vt 0.022806 0.998008
vt 0.000046 0.998008
vt 0.000046 0.001992
vt 0.022806 0.001992
vn 0.000000 1.000000 -0.000000
vn 0.000000 1.000000 -0.000000
vn 0.000000 1.000000 -0.000000
vn 0.000000 1.000000 -0.000000
vn 0.000000 1.000000 0.000000
vn 0.000000 1.000000 0.000000
vn 0.000000 1.000000 -0.000000
vn 0.000000 1.000000 -0.000000
vn 1.000000 0.000004 0.000000
vn 1.000000 0.000004 0.000000
vn 1.000000 0.000004 0.000000
vn 1.000000 0.000004 0.000000
vn 0.000001 -0.000007 1.000000
vn 0.000001 -0.000007 1.000000
vn 0.000001 -0.000007 1.000000
vn 0.000001 -0.000007 1.000000
vn -1.000000 0.000000 0.000000
vn -1.000000 0.000000 0.000000
vn -1.000000 0.000000 0.000000
vn -1.000000 0.000000 0.000000
vn -0.000000 0.000003 -1.000000
vn -0.000000 0.000003 -1.000000
vn -0.000000 0.000003 -1.000000
vn -0.000000 0.000003 -1.000000
vn 0.000000 0.000007 -1.000000
vn 0.000000 0.000007 -1.000000
vn 0.000000 0.000007 -1.000000
vn 0.000000 0.000007 -1.000000
vn -1.000000 -0.000002 -0.000000
vn -1.000000 -0.000002 -0.000000
vn -1.000000 -0.000002 -0.000000
vn -1.000000 -0.000002 -0.000000
vn 0.000000 -0.000007 1.000000
vn 0.000000 -0.000007 1.000000
vn 0.000000 -0.000007 1.000000
vn 0.000000 -0.000007 1.000000
vn 1.000000 0.000004 0.000000
vn 1.000000 0.000004 0.000000
vn 1.000000 0.000004 0.000000
vn 1.000000 0.000004 0.000000
vn 0.000000 -1.000000 0.000000
vn 0.000000 -1.000000 -0.000000
vn 0.000000 -1.000000 -0.000000
vn 0.000000 -1.000000 0.000000
vn 0.000000 -1.000000 0.000000
vn 0.000000 -1.000000 -0.000000
vn 0.000000 1.000000 -0.000000
vn 0.000000 1.000000 0.000000
vn 0.000000 -1.000000 -0.000000
vn 0.000000 -1.000000 -0.000000
vn 0.000000 -1.000000 0.000000
vn 0.000000 -1.000000 0.000000
vn 0.000000 1.000000 0.000000
vn 0.000000 1.000000 0.000000
vn 0.000000 -1.000000 0.000000
vn 0.000000 -1.000000 0.000000
vn 1.000000 0.000003 0.000000
vn 1.000000 0.000003 0.000000
vn 1.000000 0.000003 0.000000
vn 1.000000 0.000003 0.000000
vn 0.000000 0.000000 1.000000
vn 0.000000 0.000000 1.000000
vn 0.000000 0.000000 1.000000
vn 0.000000 0.000000 1.000000
vn 0.000000 0.000000 -1.000000
vn 0.000000 0.000000 -1.000000
vn 0.000000 0.000000 -1.000000
vn 0.000000 0.000000 -1.000000
vn -1.000000 -0.000002 0.000000
vn -1.000000 -0.000002 0.000000
vn -1.000000 -0.000002 0.000000
vn -1.000000 -0.000002 0.000000
s 1
g polySurface81 polySurface66
usemtl lambert9SG
f 1/1/1 2/2/2 3/3/3 4/4/4
f 7/5/5 8/6/6 1/1/1 6/7/7
f 1/1/1 4/4/4 5/8/8 6/7/7
s off
f 10/9/9 9/10/10 5/11/11 4/12/12
f 12/13/13 5/14/14 9/15/15 11/16/16
f 16/17/17 13/18/18 14/19/19 15/20/20
f 15/20/21 14/19/22 17/21/23 6/22/24
f 18/23/25 10/9/26 4/12/27 3/24/28
f 11/25/29 18/23/30 3/24/31 12/26/32
f 1/27/33 19/28/34 20/29/35 2/30/36
f 2/31/37 20/32/38 21/33/39 22/34/40
s 3
f 14/35/41 20/36/42 18/37/43 11/38/44
f 9/39/45 17/40/46 14/35/41 11/38/44
s 1
f 3/41/3 2/42/2 15/43/47 12/44/48
f 15/43/47 6/45/7 5/46/8 12/44/48
s 3
f 18/37/43 20/36/42 19/47/49 10/48/50
f 19/47/49 23/49/51 24/50/52 17/40/46
f 9/39/45 10/48/50 19/47/49 17/40/46
s 1
f 22/51/53 8/52/6 7/53/5 16/54/54
f 15/55/47 2/56/2 22/51/53 16/54/54
s 3
f 24/50/52 23/49/51 21/57/55 13/58/56
f 21/57/55 20/36/42 14/35/41 13/58/56
s off
f 6/22/57 17/21/58 24/59/59 7/60/60
f 13/61/61 16/62/62 7/63/63 24/64/64
f 23/65/65 8/66/66 22/67/67 21/68/68
f 8/69/69 23/70/70 19/71/71 1/72/72
