# This file uses centimeters as units for non-parametric coordinates.

mtllib logo.mtl
g default
v -4.299492 3.047828 -3.421545
v -4.310928 3.441026 5.064066
v -4.242305 7.730883 0.613459
v -4.326176 1.748942 0.890529
v -4.268993 6.431996 4.925527
v -4.257557 6.038798 -3.560079
v -4.284241 4.739912 0.751992
v -4.277639 4.512902 -4.147177
v -4.317257 2.036150 -1.577621
v -4.305209 3.244429 0.821257
v -4.270898 5.389355 -1.404040
v -4.291866 3.893872 -1.334773
v -4.323859 2.263164 3.321554
v -4.290844 4.966927 5.651160
v -4.276616 5.585956 2.838759
v -4.297583 4.090469 2.908028
v -4.251225 7.443678 3.081602
v -4.244622 7.216664 -1.817564
v -4.263274 6.235399 0.682724
v -4.264228 5.714078 -2.482061
v -4.267012 5.294756 -4.016091
v -4.284754 4.203386 -2.740975
v -4.281383 4.641616 -1.369408
v -4.274491 4.958732 -2.611518
v -4.288717 3.746514 -3.944386
v -4.309226 2.464456 -2.614288
v -4.304562 2.965013 -1.456193
v -4.296563 3.372688 -2.620281
v -4.323039 1.792103 -0.382191
v -4.315692 2.496686 0.855896
v -4.298537 3.569149 -0.256759
v -4.310129 2.730847 -0.300153
v -4.294725 3.992173 0.786627
v -4.277570 5.064636 -0.326022
v -4.288053 4.316892 -0.291390
v -4.326458 1.909613 2.153804
v -4.310723 3.176818 3.114790
v -4.301396 3.667449 1.864645
v -4.313207 2.836750 1.985345
v -4.318562 2.785502 4.314187
v -4.301473 4.185073 5.520083
v -4.294215 4.528698 4.279595
v -4.305803 3.690397 4.236199
v -4.279764 5.733310 5.448371
v -4.272803 6.008976 3.882144
v -4.287099 4.838213 2.873398
v -4.283511 5.268839 4.080870
v -4.280428 5.162936 1.795377
v -4.290912 4.415193 1.830014
v -4.259260 7.015371 4.118268
v -4.257249 6.839539 1.882164
v -4.269944 5.910676 1.760745
v -4.265027 6.424258 2.882156
v -4.245443 7.687725 1.886176
v -4.242028 7.570214 -0.649821
v -4.253949 6.726029 -0.567421
v -4.250358 7.156656 0.640054
v -4.249920 6.694326 -2.810202
v -4.267086 5.812379 -0.360657
v -4.259087 6.220054 -1.524744
v -4.273757 5.487656 0.717362
vt 0.387125 0.512207
vt 0.387125 0.567280
vt 0.320225 0.594817
vt 0.309876 0.539744
vt 0.253325 0.622354
vt 0.222456 0.569223
vt 0.211927 0.512207
vt 0.299526 0.484670
vt 0.387125 0.457134
vt 0.222456 0.455191
vt 0.304701 0.423207
vt 0.253325 0.402060
vt 0.302431 0.356436
vt 0.366426 0.321427
vt 0.376776 0.389281
vt 0.440951 0.299420
vt 0.448851 0.368134
vt 0.520926 0.291914
vt 0.520926 0.346987
vt 0.520926 0.402060
vt 0.454026 0.429597
vt 0.520926 0.457134
vt 0.454026 0.484670
vt 0.520926 0.512207
vt 0.454026 0.539744
vt 0.587827 0.429597
vt 0.593001 0.368134
vt 0.600901 0.299420
vt 0.675426 0.321427
vt 0.665077 0.389281
vt 0.654727 0.457134
vt 0.739422 0.356436
vt 0.737152 0.423207
vt 0.788528 0.402060
vt 0.819397 0.455191
vt 0.829926 0.512207
vt 0.742326 0.484670
vt 0.819397 0.569223
vt 0.731977 0.539744
vt 0.788528 0.622354
vt 0.721627 0.594817
vt 0.654727 0.567280
vt 0.654727 0.512207
vt 0.587827 0.539744
vt 0.587827 0.484670
vt 0.587827 0.594817
vt 0.659902 0.628744
vt 0.739422 0.667978
vt 0.675426 0.702986
vt 0.598176 0.662670
vt 0.520926 0.622354
vt 0.600901 0.724994
vt 0.520926 0.690207
vt 0.520926 0.732500
vt 0.440951 0.724994
vt 0.366426 0.702986
vt 0.443676 0.662670
vt 0.302431 0.667978
vt 0.381951 0.628743
vt 0.454026 0.594817
vt 0.520926 0.567280
vn -0.999901 0.013927 -0.001993
vn -0.999901 0.013927 -0.001993
vn -0.999901 0.013927 -0.001993
vn -0.999901 0.013927 -0.001993
vn -0.999901 0.013927 -0.001993
vn -0.999901 0.013927 -0.001993
vn -0.999901 0.013927 -0.001993
vn -0.999901 0.013927 -0.001993
vn -0.999901 0.013927 -0.001993
vn -0.999901 0.013927 -0.001993
vn -0.999901 0.013927 -0.001993
vn -0.999901 0.013927 -0.001993
vn -0.999901 0.013927 -0.001993
vn -0.999901 0.013926 -0.001993
vn -0.999901 0.013927 -0.001993
vn -0.999901 0.013927 -0.001993
vn -0.999901 0.013927 -0.001993
vn -0.999901 0.013927 -0.001993
vn -0.999901 0.013927 -0.001993
vn -0.999901 0.013927 -0.001993
vn -0.999901 0.013927 -0.001993
vn -0.999901 0.013928 -0.001994
vn -0.999901 0.013928 -0.001993
vn -0.999901 0.013927 -0.001993
vn -0.999901 0.013928 -0.001993
vn -0.999901 0.013927 -0.001993
vn -0.999901 0.013927 -0.001993
vn -0.999901 0.013927 -0.001993
vn -0.999901 0.013927 -0.001993
vn -0.999901 0.013926 -0.001993
vn -0.999901 0.013927 -0.001993
vn -0.999901 0.013927 -0.001993
vn -0.999901 0.013927 -0.001993
vn -0.999901 0.013927 -0.001993
vn -0.999901 0.013926 -0.001993
vn -0.999901 0.013926 -0.001993
vn -0.999901 0.013926 -0.001993
vn -0.999901 0.013926 -0.001993
vn -0.999901 0.013926 -0.001993
vn -0.999901 0.013926 -0.001993
vn -0.999901 0.013926 -0.001993
vn -0.999901 0.013927 -0.001993
vn -0.999901 0.013927 -0.001993
vn -0.999901 0.013926 -0.001993
vn -0.999901 0.013927 -0.001993
vn -0.999901 0.013926 -0.001993
vn -0.999901 0.013927 -0.001993
vn -0.999901 0.013926 -0.001993
vn -0.999901 0.013927 -0.001993
vn -0.999901 0.013927 -0.001993
vn -0.999901 0.013927 -0.001993
vn -0.999901 0.013927 -0.001993
vn -0.999901 0.013927 -0.001993
vn -0.999901 0.013927 -0.001993
vn -0.999901 0.013926 -0.001993
vn -0.999901 0.013927 -0.001993
vn -0.999901 0.013926 -0.001993
vn -0.999901 0.013927 -0.001993
vn -0.999901 0.013927 -0.001993
vn -0.999901 0.013927 -0.001993
vn -0.999901 0.013927 -0.001993
vn -0.999901 0.013926 -0.001993
vn -0.999901 0.013927 -0.001993
vn -0.999901 0.013927 -0.001993
vn -0.999901 0.013927 -0.001993
vn -0.999901 0.013927 -0.001993
vn -0.999901 0.013926 -0.001993
vn -0.999901 0.013927 -0.001993
vn -0.999901 0.013926 -0.001993
vn -0.999901 0.013926 -0.001993
vn -0.999901 0.013927 -0.001993
vn -0.999901 0.013927 -0.001993
vn -0.999901 0.013927 -0.001993
vn -0.999901 0.013927 -0.001993
vn -0.999901 0.013927 -0.001993
vn -0.999901 0.013927 -0.001993
vn -0.999901 0.013927 -0.001993
vn -0.999901 0.013927 -0.001993
vn -0.999901 0.013927 -0.001993
vn -0.999901 0.013927 -0.001993
vn -0.999901 0.013927 -0.001993
vn -0.999901 0.013927 -0.001993
vn -0.999901 0.013926 -0.001993
vn -0.999901 0.013927 -0.001993
vn -0.999901 0.013926 -0.001993
vn -0.999901 0.013926 -0.001992
vn -0.999901 0.013927 -0.001993
vn -0.999901 0.013927 -0.001993
vn -0.999901 0.013927 -0.001993
vn -0.999901 0.013926 -0.001993
vn -0.999901 0.013927 -0.001993
vn -0.999901 0.013927 -0.001993
vn -0.999901 0.013927 -0.001993
vn -0.999901 0.013927 -0.001993
vn -0.999901 0.013927 -0.001993
vn -0.999901 0.013927 -0.001993
vn -0.999901 0.013927 -0.001993
vn -0.999901 0.013926 -0.001993
vn -0.999901 0.013926 -0.001993
vn -0.999901 0.013926 -0.001993
vn -0.999901 0.013926 -0.001993
vn -0.999901 0.013926 -0.001993
vn -0.999901 0.013926 -0.001993
vn -0.999901 0.013926 -0.001993
vn -0.999901 0.013926 -0.001993
vn -0.999901 0.013927 -0.001993
vn -0.999901 0.013926 -0.001993
vn -0.999901 0.013926 -0.001993
vn -0.999901 0.013926 -0.001993
vn -0.999901 0.013927 -0.001993
vn -0.999901 0.013927 -0.001993
vn -0.999901 0.013926 -0.001993
vn -0.999901 0.013926 -0.001993
vn -0.999901 0.013927 -0.001993
vn -0.999901 0.013927 -0.001993
vn -0.999901 0.013927 -0.001993
vn -0.999901 0.013927 -0.001993
vn -0.999901 0.013927 -0.001993
vn -0.999901 0.013927 -0.001993
vn -0.999901 0.013927 -0.001993
vn -0.999901 0.013927 -0.001993
vn -0.999901 0.013927 -0.001993
vn -0.999901 0.013927 -0.001993
vn -0.999901 0.013927 -0.001993
vn -0.999901 0.013927 -0.001993
vn -0.999901 0.013927 -0.001993
vn -0.999901 0.013926 -0.001993
vn -0.999901 0.013927 -0.001993
vn -0.999901 0.013927 -0.001993
vn -0.999901 0.013927 -0.001993
vn -0.999901 0.013926 -0.001993
vn -0.999901 0.013927 -0.001993
vn -0.999901 0.013926 -0.001993
vn -0.999901 0.013926 -0.001993
vn -0.999901 0.013926 -0.001993
vn -0.999901 0.013927 -0.001993
vn -0.999901 0.013926 -0.001993
vn -0.999901 0.013927 -0.001993
vn -0.999901 0.013926 -0.001993
vn -0.999901 0.013927 -0.001993
vn -0.999901 0.013926 -0.001993
vn -0.999901 0.013926 -0.001993
vn -0.999901 0.013927 -0.001993
vn -0.999901 0.013927 -0.001993
vn -0.999901 0.013926 -0.001993
vn -0.999901 0.013927 -0.001993
vn -0.999901 0.013927 -0.001993
vn -0.999901 0.013926 -0.001993
vn -0.999901 0.013927 -0.001993
vn -0.999901 0.013928 -0.001993
vn -0.999901 0.013928 -0.001994
vn -0.999901 0.013926 -0.001993
vn -0.999901 0.013928 -0.001994
vn -0.999901 0.013928 -0.001993
vn -0.999901 0.013927 -0.001993
vn -0.999901 0.013926 -0.001993
vn -0.999901 0.013927 -0.001993
vn -0.999901 0.013926 -0.001993
vn -0.999901 0.013926 -0.001993
vn -0.999901 0.013926 -0.001993
vn -0.999901 0.013927 -0.001993
vn -0.999901 0.013928 -0.001993
vn -0.999901 0.013927 -0.001993
vn -0.999901 0.013927 -0.001993
vn -0.999901 0.013927 -0.001993
vn -0.999901 0.013927 -0.001993
vn -0.999901 0.013927 -0.001993
vn -0.999901 0.013927 -0.001993
vn -0.999901 0.013927 -0.001993
vn -0.999901 0.013927 -0.001993
vn -0.999901 0.013926 -0.001993
vn -0.999901 0.013927 -0.001993
vn -0.999901 0.013926 -0.001993
vn -0.999901 0.013926 -0.001993
vn -0.999901 0.013927 -0.001993
vn -0.999901 0.013927 -0.001993
vn -0.999901 0.013926 -0.001993
vn -0.999901 0.013927 -0.001993
vn -0.999901 0.013926 -0.001993
vn -0.999901 0.013927 -0.001993
vn -0.999901 0.013926 -0.001993
vn -0.999901 0.013927 -0.001993
vn -0.999901 0.013927 -0.001993
vn -0.999901 0.013927 -0.001993
vn -0.999901 0.013927 -0.001993
vn -0.999901 0.013927 -0.001993
vn -0.999901 0.013927 -0.001993
vn -0.999901 0.013927 -0.001993
vn -0.999901 0.013927 -0.001993
vn -0.999901 0.013926 -0.001993
vn -0.999901 0.013926 -0.001993
vn -0.999901 0.013927 -0.001993
s off
g logo:pDisc1
usemtl logo:lambert2SG
f 23/1/1 11/2/2 20/3/3 24/4/4
f 20/3/5 6/5/6 21/6/7 24/4/8
f 21/6/9 8/7/10 22/8/11 24/4/12
f 22/8/13 12/9/14 23/1/15 24/4/16
f 22/8/17 8/7/18 25/10/19 28/11/20
f 25/10/21 1/12/22 26/13/23 28/11/24
f 26/13/25 9/14/26 27/15/27 28/11/28
f 27/15/29 12/9/30 22/8/31 28/11/32
f 27/15/33 9/14/34 29/16/35 32/17/36
f 29/16/37 4/18/38 30/19/39 32/17/40
f 30/19/41 10/20/42 31/21/43 32/17/44
f 31/21/45 12/9/46 27/15/47 32/17/48
f 31/21/49 10/20/50 33/22/51 35/23/52
f 33/22/53 7/24/54 34/25/55 35/23/56
f 34/25/57 11/2/58 23/1/59 35/23/60
f 23/1/61 12/9/62 31/21/63 35/23/64
f 38/26/65 10/20/66 30/19/67 39/27/68
f 30/19/69 4/18/70 36/28/71 39/27/72
f 36/28/73 13/29/74 37/30/75 39/27/76
f 37/30/77 16/31/78 38/26/79 39/27/80
f 37/30/81 13/29/82 40/32/83 43/33/84
f 40/32/85 2/34/86 41/35/87 43/33/88
f 41/35/89 14/36/90 42/37/91 43/33/92
f 42/37/93 16/31/94 37/30/95 43/33/96
f 42/37/97 14/36/98 44/38/99 47/39/100
f 44/38/101 5/40/102 45/41/103 47/39/104
f 45/41/105 15/42/106 46/43/107 47/39/108
f 46/43/109 16/31/110 42/37/111 47/39/112
f 46/43/113 15/42/114 48/44/115 49/45/116
f 48/44/117 7/24/118 33/22/119 49/45/120
f 33/22/121 10/20/122 38/26/123 49/45/124
f 38/26/125 16/31/126 46/43/127 49/45/128
f 52/46/129 15/42/130 45/41/131 53/47/132
f 45/41/133 5/40/134 50/48/135 53/47/136
f 50/48/137 17/49/138 51/50/139 53/47/140
f 51/50/141 19/51/142 52/46/143 53/47/144
f 51/50/145 17/49/146 54/52/147 57/53/148
f 54/52/149 3/54/150 55/55/151 57/53/152
f 55/55/153 18/56/154 56/57/155 57/53/156
f 56/57/157 19/51/158 51/50/159 57/53/160
f 56/57/161 18/56/162 58/58/163 60/59/164
f 58/58/165 6/5/166 20/3/167 60/59/168
f 20/3/169 11/2/170 59/60/171 60/59/172
f 59/60/173 19/51/174 56/57/175 60/59/176
f 59/60/177 11/2/178 34/25/179 61/61/180
f 34/25/181 7/24/182 48/44/183 61/61/184
f 48/44/185 15/42/186 52/46/187 61/61/188
f 52/46/189 19/51/190 59/60/191 61/61/192
