# This file uses centimeters as units for non-parametric coordinates.

mtllib pasto.mtl
g default
v -12.806907 0.135504 12.175960
v -4.206907 0.135504 12.175960
v -12.806907 0.352194 12.175960
v -4.206907 0.352194 12.175960
v -12.806907 0.352194 -12.492897
v -4.206907 0.352194 -12.492897
v -12.806907 0.135504 -12.492897
v -4.206907 0.135504 -12.492897
vt 0.375000 0.000000
vt 0.625000 0.000000
vt 0.625000 0.250000
vt 0.375000 0.250000
vt 0.001992 0.998008
vt 0.001992 0.001992
vt 0.998008 0.001992
vt 0.998008 0.998008
vt 0.375000 0.500000
vt 0.625000 0.500000
vt 0.625000 0.750000
vt 0.375000 0.750000
vt 0.625000 1.000000
vt 0.375000 1.000000
vt 0.875000 0.000000
vt 0.875000 0.250000
vt 0.125000 0.000000
vt 0.125000 0.250000
vn 0.000000 0.000000 1.000000
vn 0.000000 0.000000 1.000000
vn 0.000000 0.000000 1.000000
vn 0.000000 0.000000 1.000000
vn 0.000000 1.000000 0.000000
vn 0.000000 1.000000 0.000000
vn 0.000000 1.000000 0.000000
vn 0.000000 1.000000 0.000000
vn 0.000000 0.000000 -1.000000
vn 0.000000 0.000000 -1.000000
vn 0.000000 0.000000 -1.000000
vn 0.000000 0.000000 -1.000000
vn 0.000000 -1.000000 0.000000
vn 0.000000 -1.000000 0.000000
vn 0.000000 -1.000000 0.000000
vn 0.000000 -1.000000 0.000000
vn 1.000000 0.000000 0.000000
vn 1.000000 0.000000 0.000000
vn 1.000000 0.000000 0.000000
vn 1.000000 0.000000 0.000000
vn -1.000000 0.000000 0.000000
vn -1.000000 0.000000 0.000000
vn -1.000000 0.000000 0.000000
vn -1.000000 0.000000 0.000000
s off
g pasto:pCube1
usemtl pasto:initialShadingGroup
f 1/1/1 2/2/2 4/3/3 3/4/4
usemtl pasto:lambert2SG
f 3/5/5 4/6/6 6/7/7 5/8/8
usemtl pasto:initialShadingGroup
f 5/9/9 6/10/10 8/11/11 7/12/12
f 7/12/13 8/11/14 2/13/15 1/14/16
f 2/2/17 8/15/18 6/16/19 4/3/20
f 7/17/21 1/1/22 3/4/23 5/18/24
g default
v -4.227498 0.135504 -8.884924
v 12.542502 0.135504 -8.884924
v -4.227498 0.352194 -8.884924
v 12.542502 0.352194 -8.884924
v -4.227498 0.352194 -12.478835
v 12.542502 0.352194 -12.478835
v -4.227498 0.135504 -12.478835
v 12.542502 0.135504 -12.478835
vt 0.375000 0.000000
vt 0.625000 0.000000
vt 0.625000 0.250000
vt 0.375000 0.250000
vt 0.375000 0.587143
vt 0.625000 0.587143
vt 0.625000 0.837143
vt 0.375000 0.837143
vt 0.625000 1.000000
vt 0.375000 1.000000
vt 0.875000 0.000000
vt 0.875000 0.250000
vt 0.125000 0.000000
vt 0.125000 0.250000
vt 0.787366 0.731867
vt 0.188197 0.729756
vt 0.189823 0.268133
vt 0.788992 0.270244
vn 0.000000 0.000000 1.000000
vn 0.000000 0.000000 1.000000
vn 0.000000 0.000000 1.000000
vn 0.000000 0.000000 1.000000
vn 0.000000 1.000000 0.000000
vn 0.000000 1.000000 0.000000
vn 0.000000 1.000000 0.000000
vn 0.000000 1.000000 0.000000
vn 0.000000 0.000000 -1.000000
vn 0.000000 0.000000 -1.000000
vn 0.000000 0.000000 -1.000000
vn 0.000000 0.000000 -1.000000
vn 0.000000 -1.000000 0.000000
vn 0.000000 -1.000000 0.000000
vn 0.000000 -1.000000 0.000000
vn 0.000000 -1.000000 0.000000
vn 1.000000 0.000000 0.000000
vn 1.000000 0.000000 0.000000
vn 1.000000 0.000000 0.000000
vn 1.000000 0.000000 0.000000
vn -1.000000 0.000000 0.000000
vn -1.000000 0.000000 0.000000
vn -1.000000 0.000000 0.000000
vn -1.000000 0.000000 0.000000
s off
g pasto1:pCube1 group9
usemtl pasto1:initialShadingGroup
f 9/19/25 10/20/26 12/21/27 11/22/28
usemtl pasto1:lambert2SG
f 11/33/29 12/34/30 14/35/31 13/36/32
usemtl pasto1:initialShadingGroup
f 13/23/33 14/24/34 16/25/35 15/26/36
f 15/26/37 16/25/38 10/27/39 9/28/40
f 10/20/41 16/29/42 14/30/43 12/21/44
f 15/31/45 9/19/46 11/22/47 13/32/48
