# 3ds Max Wavefront OBJ Exporter v0.99 - (c)2007 guruware
# File Created: 11.01.2023 21:26:39

mtllib monitor_on.mtl

#
# object Plane_002
#

v  -1.7417 9.4236 2.3921
v  -2.3835 9.4236 -6.6466
v  -3.1716 14.7131 -6.5906
v  -2.5297 14.7131 2.4481
# 4 vertices

vn 0.9865 0.1477 -0.0701
# 1 vertex normals

vt -0.0114 0.0002 0.4982
vt 0.9886 0.0002 0.4982
vt 0.9886 1.0002 0.4982
vt -0.0114 1.0002 0.4982
# 4 texture coords

o Plane_002
g Plane_002
usemtl Material__114
s off
f 1/1/1 2/2/1 3/3/1 
f 3/3/1 4/4/1 1/1/1 
# 2 faces

